<svg width="32" height="31" viewBox="0 0 32 31" fill="none" xmlns="http://www.w3.org/2000/svg">
<path d="M29.9002 29.9387L23.0082 27.8764L17.8109 30.9989L14.1846 30.9973L8.98411 27.8764L2.09532 29.9387L0 22.8293L2.09555 14.939L0 8.26807L2.09555 0L12.8597 6.46326H19.1358L29.9002 0L31.9957 8.26807L29.9002 14.939L31.9957 22.8293L29.9002 29.9387Z" fill="#FF5C16"/>
<path d="M2.09692 0L12.8613 6.46779L12.4334 10.9066L2.09692 0ZM8.98594 22.8323L13.7222 26.4582L8.98594 27.8762V22.8323ZM13.3436 16.8376L12.4334 10.9097L6.60667 14.9408L6.60352 14.9392V14.9422L6.62154 19.0915L8.98436 16.8378L13.3436 16.8376ZM29.9002 0L19.1358 6.46779L19.5624 10.9066L29.9002 0ZM23.0114 22.8323L18.275 26.4582L23.0114 27.8762V22.8323ZM25.3922 14.942V14.939L25.3909 14.9406L19.564 10.9097L18.6538 16.8376H23.0112L25.3756 19.091L25.3922 14.942Z" fill="#FF5C16"/>
<path d="M8.98434 27.8761L2.09555 29.9384L0 22.8322H8.98434V27.8761ZM13.342 16.8359L14.6578 25.4059L12.834 20.6408L6.61859 19.091L8.98276 16.8362L13.342 16.8359ZM23.0112 27.8761L29.9002 29.9384L31.9957 22.832H23.0112C23.0112 22.8322 23.0112 27.8761 23.0112 27.8761ZM18.6537 16.8359L17.3379 25.4059L19.1615 20.6408L25.3774 19.091L23.0116 16.8362L18.6537 16.8359Z" fill="#E34807"/>
<path d="M0 22.8289L2.09555 14.9386H6.60192L6.61837 19.0893L12.8345 20.6391L14.658 25.404L13.7206 26.4533L8.98434 22.8274H0V22.8289ZM31.9957 22.8289L29.9002 14.9386H25.3936L25.3771 19.0893L19.1615 20.6391L17.3377 25.404L18.2749 26.4533L23.0114 22.8274H31.9957V22.8289ZM19.1358 6.46289H12.8597L12.4336 10.9017L14.6583 25.3993H17.3379L19.5639 10.9017L19.1358 6.46289Z" fill="#FF8D5D"/>
<path d="M2.09555 0L0 8.26807L2.09555 14.939H6.60192L12.4318 10.9068L2.09555 0ZM12.0397 18.5572H9.9982L8.88676 19.6523L12.8358 20.6361L12.0397 18.5557V18.5572ZM29.9002 0L31.9957 8.26807L29.9002 14.939H25.3936L19.5639 10.9068L29.9002 0ZM19.959 18.5572H22.0034L23.1148 19.6536L19.1612 20.6395L19.959 18.5557V18.5572ZM17.8094 28.1706L18.2752 26.4568L17.3377 25.4076H14.656L13.7188 26.4568L14.1843 28.1706" fill="#661800"/>
<path d="M17.8094 28.1699V30.9998H14.1848V28.1699H17.8094Z" fill="#C0C4CD"/>
<path d="M8.98584 27.8731L14.1876 30.9985V28.1686L13.7218 26.4551L8.98584 27.8731ZM23.0113 27.8731L17.8093 30.9985V28.1686L18.2751 26.4551L23.0113 27.8731Z" fill="#E7EBF6"/>
</svg>
